<?xml version="1.0" encoding="UTF-8" standalone="no"?>
<!-- Created with Inkscape (http://www.inkscape.org/) -->

<svg
   xmlns:dc="http://purl.org/dc/elements/1.1/"
   xmlns:cc="http://creativecommons.org/ns#"
   xmlns:rdf="http://www.w3.org/1999/02/22-rdf-syntax-ns#"
   xmlns:svg="http://www.w3.org/2000/svg"
   xmlns="http://www.w3.org/2000/svg"
   xmlns:xlink="http://www.w3.org/1999/xlink"
   xmlns:sodipodi="http://sodipodi.sourceforge.net/DTD/sodipodi-0.dtd"
   xmlns:inkscape="http://www.inkscape.org/namespaces/inkscape"
   height="60.0000000"
   id="svg1"
   inkscape:version="0.47 r22583"
   sodipodi:docname="link_edit.svg"
   sodipodi:version="0.32"
   version="1.0"
   width="60.0000000"
   x="0"
   y="0"
   inkscape:export-filename="/home/ovi/src/thesis/mngui/extra-resources/link_edit_32.png"
   inkscape:export-xdpi="48"
   inkscape:export-ydpi="48">
  <metadata
     id="metadata3901">
    <rdf:RDF>
      <cc:Work
         rdf:about="">
        <dc:title></dc:title>
        <dc:description />
        <dc:subject>
          <rdf:Bag>
            <rdf:li>hash</rdf:li>
            <rdf:li />
            <rdf:li>action</rdf:li>
            <rdf:li>computer</rdf:li>
            <rdf:li>icons</rdf:li>
            <rdf:li>theme</rdf:li>
          </rdf:Bag>
        </dc:subject>
        <dc:publisher>
          <cc:Agent
             rdf:about="http://www.openclipart.org">
            <dc:title>Danny Allen</dc:title>
          </cc:Agent>
        </dc:publisher>
        <dc:creator>
          <cc:Agent>
            <dc:title>Danny Allen</dc:title>
          </cc:Agent>
        </dc:creator>
        <dc:rights>
          <cc:Agent>
            <dc:title>Danny Allen</dc:title>
          </cc:Agent>
        </dc:rights>
        <dc:date />
        <dc:format>image/svg+xml</dc:format>
        <dc:type
           rdf:resource="http://purl.org/dc/dcmitype/StillImage" />
        <cc:license
           rdf:resource="http://web.resource.org/cc/PublicDomain" />
        <dc:language>en</dc:language>
      </cc:Work>
      <cc:License
         rdf:about="http://web.resource.org/cc/PublicDomain">
        <cc:permits
           rdf:resource="http://web.resource.org/cc/Reproduction" />
        <cc:permits
           rdf:resource="http://web.resource.org/cc/Distribution" />
        <cc:permits
           rdf:resource="http://web.resource.org/cc/DerivativeWorks" />
      </cc:License>
    </rdf:RDF>
  </metadata>
  <sodipodi:namedview
     bordercolor="#666666"
     borderopacity="1.0"
     id="base"
     inkscape:cx="38.538354"
     inkscape:cy="42.212501"
     inkscape:pageopacity="0.0"
     inkscape:pageshadow="2"
     inkscape:window-height="1004"
     inkscape:window-width="1920"
     inkscape:window-x="0"
     inkscape:window-y="24"
     inkscape:zoom="6.9465337"
     pagecolor="#ffffff"
     showguides="true"
     snaptoguides="true"
     showgrid="false"
     inkscape:window-maximized="1"
     inkscape:current-layer="svg1" />
  <defs
     id="defs3">
    <inkscape:perspective
       sodipodi:type="inkscape:persp3d"
       inkscape:vp_x="0 : 30 : 1"
       inkscape:vp_y="0 : 1000 : 0"
       inkscape:vp_z="60 : 30 : 1"
       inkscape:persp3d-origin="30 : 20 : 1"
       id="perspective3911" />
    <linearGradient
       id="linearGradient575">
      <stop
         id="stop576"
         offset="0"
         style="stop-color:#000;stop-opacity:1;" />
      <stop
         id="stop577"
         offset="1"
         style="stop-color:#fff;stop-opacity:1;" />
    </linearGradient>
    <linearGradient
       id="linearGradient578"
       xlink:href="#linearGradient575" />
    <inkscape:perspective
       id="perspective2842"
       inkscape:persp3d-origin="0.5 : 0.33333333 : 1"
       inkscape:vp_z="1 : 0.5 : 1"
       inkscape:vp_y="0 : 1000 : 0"
       inkscape:vp_x="0 : 0.5 : 1"
       sodipodi:type="inkscape:persp3d" />
    <filter
       color-interpolation-filters="sRGB"
       inkscape:collect="always"
       id="filter3774"
       x="-0.12324234"
       width="1.2464848"
       y="-0.11877558"
       height="1.2375512">
      <feGaussianBlur
         inkscape:collect="always"
         stdDeviation="47.403534"
         id="feGaussianBlur3776" />
    </filter>
    <linearGradient
       inkscape:collect="always"
       xlink:href="#linearGradient3739"
       id="linearGradient3780"
       gradientUnits="userSpaceOnUse"
       x1="944.56036"
       y1="177.02406"
       x2="567.11755"
       y2="-203.97058"
       gradientTransform="matrix(0.00683961,0,0,0.00683961,27.215271,64.45352)" />
    <linearGradient
       inkscape:collect="always"
       id="linearGradient3739">
      <stop
         style="stop-color:#805050;stop-opacity:1;"
         offset="0"
         id="stop3741" />
      <stop
         style="stop-color:#fff3f3;stop-opacity:1"
         offset="1"
         id="stop3743" />
    </linearGradient>
    <linearGradient
       inkscape:collect="always"
       xlink:href="#linearGradient3729"
       id="linearGradient3778"
       gradientUnits="userSpaceOnUse"
       x1="413.57437"
       y1="-176.74281"
       x2="920.79657"
       y2="334.60785"
       gradientTransform="matrix(0.00683961,0,0,0.00683961,27.215271,64.45352)" />
    <linearGradient
       inkscape:collect="always"
       id="linearGradient3729">
      <stop
         style="stop-color:#f1dbdb;stop-opacity:1"
         offset="0"
         id="stop3731" />
      <stop
         style="stop-color:#8a8a8a;stop-opacity:0;"
         offset="1"
         id="stop3733" />
    </linearGradient>
    <linearGradient
       inkscape:collect="always"
       xlink:href="#linearGradient3739"
       id="linearGradient3999"
       gradientUnits="userSpaceOnUse"
       gradientTransform="matrix(0.00683961,0,0,0.00683961,27.215271,64.45352)"
       x1="944.56036"
       y1="177.02406"
       x2="567.11755"
       y2="-203.97058" />
    <linearGradient
       inkscape:collect="always"
       xlink:href="#linearGradient3729"
       id="linearGradient4001"
       gradientUnits="userSpaceOnUse"
       gradientTransform="matrix(0.00683961,0,0,0.00683961,27.215271,64.45352)"
       x1="413.57437"
       y1="-176.74281"
       x2="920.79657"
       y2="334.60785" />
  </defs>
  <path
     d="M 54.721993,31.208662 L 3.6173688,31.208662"
     id="path831"
     sodipodi:stroke-cmyk="(0.0000000 0.0000000 0.0000000 0.80000001)"
     style="fill:none;fill-rule:evenodd;stroke:#333333;stroke-opacity:1.0000000;stroke-width:5.0000000;stroke-linejoin:round;stroke-linecap:round;fill-opacity:0.75;stroke-dasharray:none;" />
  <path
     d="M 43.223908,21.591740 L 56.143112,30.872990 L 43.532558,41.185490"
     id="path869"
     sodipodi:nodetypes="ccc"
     sodipodi:stroke-cmyk="(0.0000000 0.0000000 0.0000000 0.80000001)"
     style="fill:none;fill-rule:evenodd;stroke:#333333;stroke-width:5.0000000;stroke-linecap:round;stroke-linejoin:round;stroke-opacity:1.0000000;fill-opacity:1.0000000;stroke-dasharray:none;" />
  <g
     id="g3985"
     transform="matrix(7.4673531,0,0,7.4673531,-182.75953,-494.44285)">
    <path
       inkscape:export-ydpi="2.3311617"
       inkscape:export-xdpi="2.3311617"
       inkscape:export-filename="/Users/andersbr/rails/coop/public/images/web_decorations/edit.png"
       transform="matrix(0.00683961,0,0,0.00683961,27.436361,62.684803)"
       id="path3747"
       d="m 675.33137,54.6303 c -45.4327,-0.0902 -81.5758,20.82294 -105.8438,40.9375 l -13.625,-13.71875 -174.625,178.625 16.4375,16.5625 -404.1561958,408.53125 -3,-0.3125 c 0,0 -0.015,0.78124 0,2.09375 l -1.4063002,0.15625 0,166.46875 0,131.28125 144.843796,0 131.4687,0 c 12.0505,1.69679 22.25,0 22.25,0 l 0,-1.34375 409.8125,-404.9375 14.125,14.21875 176.8438,-176.34375 -16.0938,-16.21875 c 39.0657,-48.21072 80.774,-143.19824 -40.5,-265.90625 C 772.55637,74.7165 719.54847,54.71809 675.33137,54.6303 z m -236.2188,954.8438 c -0.8284,0 -1.5,0.6715 -1.5,1.5 0,0.8284 0.6716,1.5 1.5,1.5 0.8285,0 1.5,-0.6716 1.5,-1.5 0,-0.8285 -0.6715,-1.5 -1.5,-1.5 z"
       style="fill:#040404;fill-opacity:1;stroke:none;filter:url(#filter3774)" />
    <path
       inkscape:export-ydpi="2.3311617"
       inkscape:export-xdpi="2.3311617"
       inkscape:export-filename="/Users/andersbr/rails/coop/public/images/web_decorations/edit.png"
       sodipodi:nodetypes="cscc"
       style="fill:#805050;fill-opacity:1;stroke:none"
       d="m 31.094135,63.587986 c 0,0 0.824321,-1.203528 2.031784,0.01821 1.219338,1.233758 0.02985,2.058098 0.02985,2.058098 l -2.061639,-2.07631 z"
       id="path3623" />
    <path
       inkscape:export-ydpi="2.3311617"
       inkscape:export-xdpi="2.3311617"
       inkscape:export-filename="/Users/andersbr/rails/coop/public/images/web_decorations/edit.png"
       id="path3737"
       d="m 31.094135,63.587986 c 0,0 0.824321,-1.203528 2.031784,0.01821 1.219338,1.233758 0.02985,2.058098 0.02985,2.058098 l -2.061639,-2.07631 z"
       style="opacity:0.23360656;fill:url(#linearGradient3999);fill-opacity:1;stroke:none"
       sodipodi:nodetypes="cscc" />
    <path
       inkscape:export-ydpi="2.3311617"
       inkscape:export-xdpi="2.3311617"
       inkscape:export-filename="/Users/andersbr/rails/coop/public/images/web_decorations/edit.png"
       id="path3625"
       d="m 27.361805,67.38717 0,2.036368 2.042171,0 0,-2.2669 -2.042171,0.230532 z"
       style="fill:#f2dcb8;fill-opacity:1;stroke:none" />
    <path
       transform="matrix(0.00683961,0,0,0.00683961,27.215271,64.45352)"
       inkscape:export-ydpi="2.3311617"
       inkscape:export-xdpi="2.3311617"
       inkscape:export-filename="/Users/andersbr/rails/coop/public/images/web_decorations/edit.png"
       d="m 472.92856,752.36218 c 0,0.82843 -0.67157,1.5 -1.5,1.5 -0.82843,0 -1.5,-0.67157 -1.5,-1.5 0,-0.82842 0.67157,-1.5 1.5,-1.5 0.82843,0 1.5,0.67158 1.5,1.5 z"
       sodipodi:ry="1.5"
       sodipodi:rx="1.5"
       sodipodi:cy="752.36218"
       sodipodi:cx="471.42856"
       style="fill:#000000;stroke:none"
       id="path2818"
       sodipodi:type="arc" />
    <path
       transform="matrix(0.00683961,0,0,0.00683961,27.215271,64.45352)"
       inkscape:export-ydpi="2.3311617"
       inkscape:export-xdpi="2.3311617"
       inkscape:export-filename="/Users/andersbr/rails/coop/public/images/web_decorations/edit.png"
       d="m 470.07144,129.50504 c 0,0.82842 -0.67157,1.5 -1.5,1.5 -0.82843,0 -1.5,-0.67158 -1.5,-1.5 0,-0.82843 0.67157,-1.5 1.5,-1.5 0.82843,0 1.5,0.67157 1.5,1.5 z"
       sodipodi:ry="1.5"
       sodipodi:rx="1.5"
       sodipodi:cy="129.50504"
       sodipodi:cx="468.57144"
       style="fill:#000000;stroke:none"
       id="path2820"
       sodipodi:type="arc" />
    <path
       inkscape:export-ydpi="2.3311617"
       inkscape:export-xdpi="2.3311617"
       inkscape:export-filename="/Users/andersbr/rails/coop/public/images/web_decorations/edit.png"
       sodipodi:nodetypes="cccscscscccc"
       id="path2842"
       d="m 30.244363,64.490497 -2.852331,2.883323 -0.02052,-0.0021 c 0,0 -0.0054,0.280875 0.107663,0.420086 0.127022,0.156334 0.410224,0.0978 0.410224,0.0978 0,0 -0.07801,0.35166 0.263967,0.703411 0.34198,0.351751 0.791257,0.361431 0.791257,0.361431 0,0 -0.0097,0.234654 0.107541,0.371446 0.11725,0.136792 0.351781,0.09771 0.351781,0.09771 l -4.24e-4,-0.0088 2.899782,-2.86537 -2.058937,-2.058936 z"
       style="fill:#ffba00;fill-opacity:1;stroke:none" />
    <path
       inkscape:export-ydpi="2.3311617"
       inkscape:export-xdpi="2.3311617"
       inkscape:export-filename="/Users/andersbr/rails/coop/public/images/web_decorations/edit.png"
       id="path3633"
       d="m 31.84868,66.094813 -2.911965,2.859171 c 0.0047,2.43e-4 0.0079,4.27e-4 0.0079,4.27e-4 0,0 -0.0097,0.234684 0.10751,0.371476 0.117251,0.136793 0.351812,0.09768 0.351812,0.09768 l -4.24e-4,-0.0088 2.899782,-2.865369 -0.454621,-0.454621 z"
       style="fill:#cb9605;fill-opacity:1;stroke:none" />
    <path
       inkscape:export-ydpi="2.3311617"
       inkscape:export-xdpi="2.3311617"
       inkscape:export-filename="/Users/andersbr/rails/coop/public/images/web_decorations/edit.png"
       id="path3638"
       d="m 30.244363,64.490497 -2.852331,2.883323 -0.02052,-0.0021 c 0,0 -0.0054,0.280784 0.107724,0.419995 0.125647,0.154641 0.40308,0.09933 0.409095,0.0981 l 2.830957,-2.924361 -0.474926,-0.474925 z"
       style="fill:#ffcf4b;fill-opacity:1;stroke:none" />
    <path
       inkscape:export-ydpi="2.3311617"
       inkscape:export-xdpi="2.3311617"
       inkscape:export-filename="/Users/andersbr/rails/coop/public/images/web_decorations/edit.png"
       style="fill:#777777;fill-opacity:1;stroke:none"
       d="m 30.043959,64.466381 1.194205,-1.221713 2.274998,2.291187 -1.209556,1.206253 -2.259647,-2.275727 z"
       id="path3727" />
    <path
       inkscape:export-ydpi="2.3311617"
       inkscape:export-xdpi="2.3311617"
       inkscape:export-filename="/Users/andersbr/rails/coop/public/images/web_decorations/edit.png"
       id="path3621"
       d="m 30.043959,64.466381 1.194205,-1.221713 2.274998,2.291187 -1.209556,1.206253 -2.259647,-2.275727 z"
       style="fill:url(#linearGradient4001);fill-opacity:1;stroke:none" />
    <path
       inkscape:export-ydpi="2.3311617"
       inkscape:export-xdpi="2.3311617"
       inkscape:export-filename="/Users/andersbr/rails/coop/public/images/web_decorations/edit.png"
       sodipodi:nodetypes="cccc"
       id="path3627"
       d="m 27.361895,68.525654 0,0.897913 0.990675,0 c -0.259185,-0.382492 -0.688204,-0.747951 -0.990675,-0.897913 z"
       style="fill:#333333;fill-opacity:1;stroke:none" />
  </g>
</svg>
